<svg width="178" height="142" viewBox="0 0 178 142" fill="none" xmlns="http://www.w3.org/2000/svg">
<path d="M37.488 37H35.808L28.992 23.272H9.888L3.216 37H1.536L19.488 0.136L37.488 37ZM28.416 21.88L19.392 3.592L10.56 21.88H28.416ZM47.3029 37.528C45.7669 37.528 44.4069 37.272 43.2229 36.76C42.0389 36.216 41.1909 35.528 40.6789 34.696V32.152C41.2869 33.528 42.1189 34.552 43.1749 35.224C44.2309 35.864 45.5749 36.184 47.2069 36.184C48.7749 36.184 50.0389 35.704 50.9989 34.744C51.9589 33.752 52.4389 32.488 52.4389 30.952C52.4389 29.64 52.1669 28.632 51.6229 27.928C51.0789 27.192 50.1989 26.456 48.9829 25.72L47.1589 24.664C45.8469 23.864 44.8549 23.24 44.1829 22.792C43.5429 22.312 43.0309 21.784 42.6469 21.208C42.2629 20.6 42.0709 19.896 42.0709 19.096C42.0709 17.816 42.5189 16.792 43.4149 16.024C44.3109 15.256 45.4789 14.872 46.9189 14.872C48.6789 14.872 50.1509 15.272 51.3349 16.072V18.184C50.3429 16.872 48.9189 16.216 47.0629 16.216C46.0389 16.216 45.2069 16.472 44.5669 16.984C43.9269 17.496 43.6069 18.152 43.6069 18.952C43.6069 19.656 43.7989 20.28 44.1829 20.824C44.5669 21.336 45.0949 21.816 45.7669 22.264C46.4709 22.712 47.6229 23.384 49.2229 24.28C50.8549 25.208 52.0549 26.168 52.8229 27.16C53.5909 28.12 53.9749 29.384 53.9749 30.952C53.9749 32.936 53.3189 34.536 52.0069 35.752C50.7269 36.936 49.1589 37.528 47.3029 37.528ZM60.6304 10.456C60.1824 10.456 59.7824 10.296 59.4304 9.976C59.1104 9.656 58.9504 9.256 58.9504 8.776C58.9504 8.328 59.1104 7.944 59.4304 7.624C59.7824 7.304 60.1824 7.144 60.6304 7.144C61.0784 7.144 61.4624 7.304 61.7824 7.624C62.1344 7.944 62.3104 8.328 62.3104 8.776C62.3104 9.256 62.1344 9.656 61.7824 9.976C61.4624 10.296 61.0784 10.456 60.6304 10.456ZM59.8624 15.4H61.3984V37H59.8624V15.4ZM73.7873 37.528C72.2513 37.528 70.8913 37.272 69.7073 36.76C68.5233 36.216 67.6753 35.528 67.1633 34.696V32.152C67.7713 33.528 68.6033 34.552 69.6593 35.224C70.7153 35.864 72.0593 36.184 73.6913 36.184C75.2593 36.184 76.5233 35.704 77.4833 34.744C78.4433 33.752 78.9233 32.488 78.9233 30.952C78.9233 29.64 78.6513 28.632 78.1073 27.928C77.5633 27.192 76.6833 26.456 75.4673 25.72L73.6433 24.664C72.3313 23.864 71.3393 23.24 70.6673 22.792C70.0273 22.312 69.5153 21.784 69.1313 21.208C68.7473 20.6 68.5553 19.896 68.5553 19.096C68.5553 17.816 69.0033 16.792 69.8993 16.024C70.7953 15.256 71.9633 14.872 73.4033 14.872C75.1633 14.872 76.6353 15.272 77.8193 16.072V18.184C76.8273 16.872 75.4033 16.216 73.5473 16.216C72.5233 16.216 71.6913 16.472 71.0513 16.984C70.4113 17.496 70.0913 18.152 70.0913 18.952C70.0913 19.656 70.2833 20.28 70.6673 20.824C71.0513 21.336 71.5793 21.816 72.2513 22.264C72.9553 22.712 74.1073 23.384 75.7073 24.28C77.3393 25.208 78.5393 26.168 79.3073 27.16C80.0753 28.12 80.4593 29.384 80.4593 30.952C80.4593 32.936 79.8033 34.536 78.4913 35.752C77.2113 36.936 75.6433 37.528 73.7873 37.528ZM92.9708 37.288C90.6028 37.288 88.6348 36.568 87.0668 35.128C85.5308 33.688 84.7628 31.704 84.7628 29.176V6.712H86.2988V15.4H92.9228V16.744H86.2988V29.176C86.2988 31.288 86.9228 32.952 88.1708 34.168C89.4508 35.352 91.0508 35.944 92.9708 35.944V37.288ZM107.52 36.232C109.184 36.232 110.768 35.8 112.272 34.936C113.776 34.072 115.024 32.888 116.016 31.384V33.832C114.832 35.144 113.536 36.104 112.128 36.712C110.72 37.288 109.12 37.576 107.328 37.576C105.344 37.576 103.472 37.048 101.712 35.992C99.9844 34.936 98.5924 33.528 97.5364 31.768C96.5124 30.008 96.0004 28.136 96.0004 26.152C96.0004 24.008 96.5124 22.088 97.5364 20.392C98.5604 18.664 99.9524 17.32 101.712 16.36C103.504 15.4 105.488 14.92 107.664 14.92C110.992 14.92 113.824 16.232 116.16 18.856L101.088 33.736C102.144 34.6 103.168 35.24 104.16 35.656C105.152 36.04 106.272 36.232 107.52 36.232ZM97.5364 26.008C97.5364 28.664 98.4164 30.936 100.176 32.824L114.24 18.856C113.184 17.928 112.16 17.272 111.168 16.888C110.176 16.472 108.992 16.264 107.616 16.264C105.664 16.264 103.92 16.696 102.384 17.56C100.88 18.392 99.6964 19.544 98.8324 21.016C97.9684 22.488 97.5364 24.152 97.5364 26.008ZM120.962 15.4H122.498V20.2C123.202 18.6 124.402 17.32 126.098 16.36C127.794 15.368 129.666 14.872 131.714 14.872C134.37 14.872 136.466 15.72 138.002 17.416C139.57 19.08 140.354 21.416 140.354 24.424V37H138.818V24.424C138.818 21.832 138.178 19.816 136.898 18.376C135.65 16.936 133.89 16.216 131.618 16.216C129.954 16.216 128.418 16.6 127.01 17.368C125.634 18.104 124.53 19.128 123.698 20.44C122.898 21.752 122.498 23.24 122.498 24.904V37H120.962V15.4ZM154.143 37.288C151.775 37.288 149.807 36.568 148.239 35.128C146.703 33.688 145.935 31.704 145.935 29.176V6.712H147.471V15.4H154.095V16.744H147.471V29.176C147.471 31.288 148.095 32.952 149.343 34.168C150.623 35.352 152.223 35.944 154.143 35.944V37.288ZM168.692 36.232C170.356 36.232 171.94 35.8 173.444 34.936C174.948 34.072 176.196 32.888 177.188 31.384V33.832C176.004 35.144 174.708 36.104 173.3 36.712C171.892 37.288 170.292 37.576 168.5 37.576C166.516 37.576 164.644 37.048 162.884 35.992C161.156 34.936 159.764 33.528 158.708 31.768C157.684 30.008 157.172 28.136 157.172 26.152C157.172 24.008 157.684 22.088 158.708 20.392C159.732 18.664 161.124 17.32 162.884 16.36C164.676 15.4 166.66 14.92 168.836 14.92C172.164 14.92 174.996 16.232 177.332 18.856L162.26 33.736C163.316 34.6 164.34 35.24 165.332 35.656C166.324 36.04 167.444 36.232 168.692 36.232ZM158.708 26.008C158.708 28.664 159.588 30.936 161.348 32.824L175.412 18.856C174.356 17.928 173.332 17.272 172.34 16.888C171.348 16.472 170.164 16.264 168.788 16.264C166.836 16.264 165.092 16.696 163.556 17.56C162.052 18.392 160.868 19.544 160.004 21.016C159.14 22.488 158.708 24.152 158.708 26.008ZM32.928 57L16.464 93.816L0 57H1.728L16.608 90.168L31.296 57H32.928ZM36.8648 66.456C36.4168 66.456 36.0168 66.296 35.6648 65.976C35.3448 65.656 35.1848 65.256 35.1848 64.776C35.1848 64.328 35.3448 63.944 35.6648 63.624C36.0168 63.304 36.4168 63.144 36.8648 63.144C37.3128 63.144 37.6968 63.304 38.0168 63.624C38.3688 63.944 38.5448 64.328 38.5448 64.776C38.5448 65.256 38.3688 65.656 38.0168 65.976C37.6968 66.296 37.3128 66.456 36.8648 66.456ZM36.0968 71.4H37.6328V93H36.0968V71.4ZM44.7896 71.4H46.3256V76.392C46.9656 74.824 47.8936 73.592 49.1096 72.696C50.3576 71.8 51.7656 71.352 53.3336 71.352C54.3256 71.352 55.3336 71.56 56.3576 71.976V73.752C55.4296 73.048 54.3896 72.696 53.2376 72.696C52.0856 72.696 50.9656 73.048 49.8776 73.752C48.8216 74.456 47.9576 75.4 47.2856 76.584C46.6456 77.768 46.3256 79.032 46.3256 80.376V93H44.7896V71.4ZM67.8926 93.288C65.5246 93.288 63.5566 92.568 61.9886 91.128C60.4526 89.688 59.6846 87.704 59.6846 85.176V62.712H61.2206V71.4H67.8446V72.744H61.2206V85.176C61.2206 87.288 61.8446 88.952 63.0926 90.168C64.3726 91.352 65.9726 91.944 67.8926 91.944V93.288ZM81.4343 93.528C78.3943 93.528 76.0423 92.696 74.3783 91.032C72.7463 89.368 71.9303 87.016 71.9303 83.976V71.4H73.4663V83.976C73.4663 86.6 74.1543 88.632 75.5303 90.072C76.9383 91.48 78.9063 92.184 81.4343 92.184C82.9703 92.184 84.3783 91.848 85.6583 91.176C86.9383 90.472 87.9463 89.496 88.6823 88.248C89.4183 87 89.7863 85.576 89.7863 83.976V71.4H91.3223V93H89.7863V88.968C89.0503 90.312 87.9463 91.416 86.4743 92.28C85.0023 93.112 83.3223 93.528 81.4343 93.528ZM107.559 93.528C105.511 93.528 103.607 93.016 101.847 91.992C100.087 90.968 98.6954 89.592 97.6714 87.864C96.6474 86.104 96.1354 84.216 96.1354 82.2C96.1354 80.184 96.6474 78.312 97.6714 76.584C98.6954 74.824 100.087 73.432 101.847 72.408C103.607 71.384 105.511 70.872 107.559 70.872C109.639 70.872 111.607 71.432 113.463 72.552C115.319 73.64 116.615 75.064 117.351 76.824V71.4H118.887V93H117.351V87.624C116.487 89.416 115.143 90.856 113.319 91.944C111.527 93 109.607 93.528 107.559 93.528ZM107.655 92.184C109.415 92.184 111.047 91.736 112.551 90.84C114.055 89.912 115.239 88.696 116.103 87.192C116.999 85.656 117.447 83.992 117.447 82.2C117.447 80.44 116.999 78.792 116.103 77.256C115.207 75.72 114.007 74.504 112.503 73.608C110.999 72.68 109.367 72.216 107.607 72.216C105.847 72.216 104.199 72.68 102.663 73.608C101.159 74.536 99.9434 75.768 99.0154 77.304C98.1194 78.84 97.6714 80.488 97.6714 82.248C97.6714 84.008 98.1194 85.656 99.0154 87.192C99.9434 88.696 101.175 89.912 102.711 90.84C104.247 91.736 105.895 92.184 107.655 92.184ZM133.154 93.432C131.65 93.432 130.274 93.096 129.026 92.424C127.778 91.72 126.786 90.744 126.05 89.496C125.314 88.248 124.946 86.856 124.946 85.32V57H126.482V85.32C126.482 86.6 126.77 87.752 127.346 88.776C127.954 89.8 128.77 90.616 129.794 91.224C130.818 91.8 131.938 92.088 133.154 92.088V93.432Z" fill="#757575"/>
<path d="M32.16 138.024C31.68 138.44 31.008 138.856 30.144 139.272C29.28 139.656 28.32 140.008 27.264 140.328C26.24 140.648 25.168 140.904 24.048 141.096C22.96 141.288 21.936 141.384 20.976 141.384C18.192 141.384 15.68 140.952 13.44 140.088C11.232 139.224 9.328 138.024 7.728 136.488C6.16 134.952 4.944 133.144 4.08 131.064C3.248 128.984 2.832 126.728 2.832 124.296C2.832 121.416 3.296 118.84 4.224 116.568C5.184 114.264 6.48 112.328 8.112 110.76C9.776 109.16 11.68 107.96 13.824 107.16C15.968 106.328 18.24 105.912 20.64 105.912C22.656 105.912 24.528 106.152 26.256 106.632C27.984 107.112 29.504 107.72 30.816 108.456L29.232 112.728C28.592 112.344 27.792 111.992 26.832 111.672C25.904 111.352 24.944 111.096 23.952 110.904C22.96 110.68 22.032 110.568 21.168 110.568C19.12 110.568 17.264 110.888 15.6 111.528C13.936 112.136 12.512 113.032 11.328 114.216C10.144 115.368 9.232 116.776 8.592 118.44C7.952 120.072 7.632 121.912 7.632 123.96C7.632 125.848 7.952 127.576 8.592 129.144C9.232 130.712 10.144 132.072 11.328 133.224C12.512 134.344 13.92 135.224 15.552 135.864C17.216 136.472 19.04 136.776 21.024 136.776C22.208 136.776 23.376 136.664 24.528 136.44C25.68 136.184 26.672 135.832 27.504 135.384V128.472H20.592V124.008H32.16V138.024ZM38.8789 123.672C38.8789 121.272 39.3269 119.016 40.2229 116.904C41.1509 114.76 42.4309 112.872 44.0629 111.24C45.6949 109.576 47.5669 108.28 49.6789 107.352C51.8229 106.392 54.1269 105.912 56.5909 105.912C59.0229 105.912 61.2949 106.392 63.4069 107.352C65.5509 108.28 67.4389 109.576 69.0709 111.24C70.7349 112.872 72.0309 114.76 72.9589 116.904C73.8869 119.016 74.3509 121.272 74.3509 123.672C74.3509 126.136 73.8869 128.44 72.9589 130.584C72.0309 132.728 70.7349 134.616 69.0709 136.248C67.4389 137.848 65.5509 139.112 63.4069 140.04C61.2949 140.936 59.0229 141.384 56.5909 141.384C54.1269 141.384 51.8229 140.936 49.6789 140.04C47.5669 139.144 45.6949 137.896 44.0629 136.296C42.4309 134.696 41.1509 132.824 40.2229 130.68C39.3269 128.536 38.8789 126.2 38.8789 123.672ZM43.6789 123.72C43.6789 125.544 44.0149 127.256 44.6869 128.856C45.3589 130.424 46.2869 131.816 47.4709 133.032C48.6549 134.248 50.0309 135.208 51.5989 135.912C53.1669 136.584 54.8629 136.92 56.6869 136.92C58.4789 136.92 60.1589 136.584 61.7269 135.912C63.2949 135.208 64.6549 134.248 65.8069 133.032C66.9589 131.816 67.8709 130.424 68.5429 128.856C69.2149 127.256 69.5509 125.528 69.5509 123.672C69.5509 121.848 69.2149 120.136 68.5429 118.536C67.8709 116.904 66.9429 115.48 65.7589 114.264C64.5749 113.048 63.1989 112.104 61.6309 111.432C60.0629 110.728 58.3829 110.376 56.5909 110.376C54.7669 110.376 53.0709 110.728 51.5029 111.432C49.9349 112.136 48.5589 113.096 47.3749 114.312C46.1909 115.528 45.2789 116.952 44.6389 118.584C43.9989 120.184 43.6789 121.896 43.6789 123.72Z" fill="#EF5350"/>
</svg>
